<svg width="101" height="21" viewBox="0 0 101 21" fill="none" xmlns="http://www.w3.org/2000/svg">
<circle cx="41.5" cy="13.5" r="0.5" fill="#75DDDD"/>
<circle cx="30.5" cy="13.5" r="0.5" fill="#75DDDD"/>
<path d="M3.25 4.04297H5.24805L7.62695 12H6.29688L5.57031 9.56836H2.99805L2.30664 12H0.941406L3.25 4.04297ZM5.29492 8.54883L4.22266 4.64648L3.25586 8.54883H5.29492ZM8.5 4.04883C8.69922 4.04102 8.91992 4.03125 9.16211 4.01953C9.37305 4.01172 9.61914 4.00391 9.90039 3.99609C10.1855 3.98828 10.498 3.98438 10.8379 3.98438C11.4473 3.98438 11.9863 4.06641 12.4551 4.23047C12.9238 4.39062 13.3184 4.63477 13.6387 4.96289C13.9629 5.29102 14.207 5.70312 14.3711 6.19922C14.5391 6.69531 14.623 7.27734 14.623 7.94531C14.623 8.61328 14.5332 9.20117 14.3535 9.70898C14.1738 10.2129 13.916 10.6348 13.5801 10.9746C13.248 11.3145 12.8438 11.5703 12.3672 11.7422C11.8906 11.9141 11.3535 12 10.7559 12H8.5V4.04883ZM10.9551 10.9746C11.3184 10.9746 11.6426 10.8984 11.9277 10.7461C12.2129 10.5898 12.4551 10.377 12.6543 10.1074C12.8535 9.83398 13.0059 9.51562 13.1113 9.15234C13.2168 8.78516 13.2695 8.39062 13.2695 7.96875C13.2695 7.48047 13.2168 7.05273 13.1113 6.68555C13.0059 6.31445 12.8535 6.00391 12.6543 5.75391C12.4551 5.50391 12.2129 5.31641 11.9277 5.19141C11.6426 5.06641 11.3184 5.00391 10.9551 5.00391C10.7559 5.00391 10.584 5.00586 10.4395 5.00977C10.2949 5.01367 10.1777 5.01758 10.0879 5.02148C9.98242 5.0293 9.89453 5.03516 9.82422 5.03906V10.9746H10.9551ZM15.8594 4.04297H20.4238C20.4238 4.07031 20.4258 4.09961 20.4297 4.13086C20.4336 4.1582 20.4355 4.18945 20.4355 4.22461C20.4395 4.25586 20.4414 4.29102 20.4414 4.33008C20.4414 4.39648 20.4277 4.49805 20.4004 4.63477C20.377 4.76758 20.3223 4.92188 20.2363 5.09766C19.9121 5.08594 19.5762 5.07422 19.2285 5.0625C18.9316 5.05469 18.6035 5.04688 18.2441 5.03906C17.8848 5.02734 17.5332 5.02148 17.1895 5.02148V7.42383C17.3027 7.42383 17.4297 7.42383 17.5703 7.42383C17.7148 7.41992 17.8633 7.41602 18.0156 7.41211C18.1719 7.4082 18.3281 7.4043 18.4844 7.40039C18.6406 7.39648 18.793 7.39258 18.9414 7.38867C19.2852 7.37695 19.6387 7.36719 20.002 7.35938C20.002 7.39062 20.0039 7.42383 20.0078 7.45898C20.0117 7.49023 20.0137 7.52734 20.0137 7.57031C20.0176 7.60938 20.0195 7.65039 20.0195 7.69336C20.0195 7.71289 20.0156 7.75195 20.0078 7.81055C20.0039 7.86523 19.9941 7.92773 19.9785 7.99805C19.9668 8.06836 19.9512 8.13867 19.9316 8.20898C19.916 8.2793 19.8965 8.33789 19.873 8.38477C19.5098 8.38477 19.1602 8.38281 18.8242 8.37891C18.6797 8.37891 18.5312 8.37891 18.3789 8.37891C18.2266 8.37891 18.0781 8.37891 17.9336 8.37891C17.793 8.375 17.6582 8.37305 17.5293 8.37305C17.4004 8.37305 17.2871 8.37305 17.1895 8.37305V10.998C17.5332 10.998 17.8945 10.9922 18.2734 10.9805C18.6562 10.9688 19.0117 10.957 19.3398 10.9453C19.7227 10.9297 20.0996 10.9121 20.4707 10.8926C20.4707 10.9277 20.4727 10.9648 20.4766 11.0039C20.4805 11.0352 20.4824 11.0742 20.4824 11.1211C20.4863 11.1641 20.4883 11.207 20.4883 11.25C20.4883 11.332 20.4824 11.4395 20.4707 11.5723C20.459 11.7051 20.4336 11.8477 20.3945 12H15.8594V4.04297ZM21.8359 4.04297H23.166V10.8984C23.3301 10.8984 23.5 10.8965 23.6758 10.8926C23.8555 10.8887 24.0332 10.8848 24.209 10.8809C24.3887 10.877 24.5625 10.873 24.7305 10.8691C24.9023 10.8613 25.0645 10.8535 25.2168 10.8457C25.5762 10.8301 25.9277 10.8145 26.2715 10.7988C26.2715 10.8652 26.2617 10.9648 26.2422 11.0977C26.2266 11.2305 26.207 11.3652 26.1836 11.502C26.1602 11.6348 26.1367 11.752 26.1133 11.8535C26.0938 11.9512 26.0781 12 26.0664 12H21.8359V4.04297ZM27.6602 4.04297H32.2246C32.2246 4.07031 32.2266 4.09961 32.2305 4.13086C32.2344 4.1582 32.2363 4.18945 32.2363 4.22461C32.2402 4.25586 32.2422 4.29102 32.2422 4.33008C32.2422 4.39648 32.2285 4.49805 32.2012 4.63477C32.1777 4.76758 32.123 4.92188 32.0371 5.09766C31.7129 5.08594 31.377 5.07422 31.0293 5.0625C30.7324 5.05469 30.4043 5.04688 30.0449 5.03906C29.6855 5.02734 29.334 5.02148 28.9902 5.02148V7.42383C29.1035 7.42383 29.2305 7.42383 29.3711 7.42383C29.5156 7.41992 29.6641 7.41602 29.8164 7.41211C29.9727 7.4082 30.1289 7.4043 30.2852 7.40039C30.4414 7.39648 30.5938 7.39258 30.7422 7.38867C31.0859 7.37695 31.4395 7.36719 31.8027 7.35938C31.8027 7.39062 31.8047 7.42383 31.8086 7.45898C31.8125 7.49023 31.8145 7.52734 31.8145 7.57031C31.8184 7.60938 31.8203 7.65039 31.8203 7.69336C31.8203 7.71289 31.8164 7.75195 31.8086 7.81055C31.8047 7.86523 31.7949 7.92773 31.7793 7.99805C31.7676 8.06836 31.752 8.13867 31.7324 8.20898C31.7168 8.2793 31.6973 8.33789 31.6738 8.38477C31.3105 8.38477 30.9609 8.38281 30.625 8.37891C30.4805 8.37891 30.332 8.37891 30.1797 8.37891C30.0273 8.37891 29.8789 8.37891 29.7344 8.37891C29.5938 8.375 29.459 8.37305 29.3301 8.37305C29.2012 8.37305 29.0879 8.37305 28.9902 8.37305V10.998C29.334 10.998 29.6953 10.9922 30.0742 10.9805C30.457 10.9688 30.8125 10.957 31.1406 10.9453C31.5234 10.9297 31.9004 10.9121 32.2715 10.8926C32.2715 10.9277 32.2734 10.9648 32.2773 11.0039C32.2812 11.0352 32.2832 11.0742 32.2832 11.1211C32.2871 11.1641 32.2891 11.207 32.2891 11.25C32.2891 11.332 32.2832 11.4395 32.2715 11.5723C32.2598 11.7051 32.2344 11.8477 32.1953 12H27.6602V4.04297ZM34.9844 9.01172L32.5938 4.04297H34.0234L35.2949 7.01953L35.6348 8.05078L35.9746 7.02539L37.2637 4.04297H38.6934L36.3145 9.01172V12H34.9844V9.01172ZM39.5078 4.04297H44.0723C44.0723 4.07031 44.0742 4.09961 44.0781 4.13086C44.082 4.1582 44.084 4.18945 44.084 4.22461C44.0879 4.25586 44.0898 4.29102 44.0898 4.33008C44.0898 4.39648 44.0762 4.49805 44.0488 4.63477C44.0254 4.76758 43.9707 4.92188 43.8848 5.09766C43.5605 5.08594 43.2246 5.07422 42.877 5.0625C42.5801 5.05469 42.252 5.04688 41.8926 5.03906C41.5332 5.02734 41.1816 5.02148 40.8379 5.02148V7.42383C40.9512 7.42383 41.0781 7.42383 41.2188 7.42383C41.3633 7.41992 41.5117 7.41602 41.6641 7.41211C41.8203 7.4082 41.9766 7.4043 42.1328 7.40039C42.2891 7.39648 42.4414 7.39258 42.5898 7.38867C42.9336 7.37695 43.2871 7.36719 43.6504 7.35938C43.6504 7.39062 43.6523 7.42383 43.6562 7.45898C43.6602 7.49023 43.6621 7.52734 43.6621 7.57031C43.666 7.60938 43.668 7.65039 43.668 7.69336C43.668 7.71289 43.6641 7.75195 43.6562 7.81055C43.6523 7.86523 43.6426 7.92773 43.627 7.99805C43.6152 8.06836 43.5996 8.13867 43.5801 8.20898C43.5645 8.2793 43.5449 8.33789 43.5215 8.38477C43.1582 8.38477 42.8086 8.38281 42.4727 8.37891C42.3281 8.37891 42.1797 8.37891 42.0273 8.37891C41.875 8.37891 41.7266 8.37891 41.582 8.37891C41.4414 8.375 41.3066 8.37305 41.1777 8.37305C41.0488 8.37305 40.9355 8.37305 40.8379 8.37305V10.998C41.1816 10.998 41.543 10.9922 41.9219 10.9805C42.3047 10.9688 42.6602 10.957 42.9883 10.9453C43.3711 10.9297 43.748 10.9121 44.1191 10.8926C44.1191 10.9277 44.1211 10.9648 44.125 11.0039C44.1289 11.0352 44.1309 11.0742 44.1309 11.1211C44.1348 11.1641 44.1367 11.207 44.1367 11.25C44.1367 11.332 44.1309 11.4395 44.1191 11.5723C44.1074 11.7051 44.082 11.8477 44.043 12H39.5078V4.04297ZM48.8477 4.04297H50.1719V12H48.8477V4.04297ZM52.0234 4.04297H56.5879C56.5879 4.07031 56.5898 4.09961 56.5938 4.13086C56.5977 4.1582 56.5996 4.18945 56.5996 4.22461C56.6035 4.25586 56.6055 4.29102 56.6055 4.33008C56.6055 4.39648 56.5918 4.49805 56.5645 4.63477C56.541 4.76758 56.4863 4.92188 56.4004 5.09766C56.0801 5.08594 55.748 5.07422 55.4043 5.0625C55.1113 5.05469 54.7832 5.04688 54.4199 5.03906C54.0605 5.02734 53.7051 5.02148 53.3535 5.02148V7.61719C53.459 7.61719 53.582 7.61719 53.7227 7.61719C53.8633 7.61328 54.0117 7.60938 54.168 7.60547C54.3242 7.60156 54.4844 7.59766 54.6484 7.59375C54.8164 7.58594 54.9785 7.58008 55.1348 7.57617C55.502 7.56445 55.8848 7.55273 56.2832 7.54102C56.2832 7.57227 56.2852 7.60547 56.2891 7.64062C56.293 7.67188 56.2949 7.70898 56.2949 7.75195C56.2988 7.79102 56.3008 7.83203 56.3008 7.875C56.3008 7.91016 56.291 7.98438 56.2715 8.09766C56.2559 8.21094 56.2168 8.37305 56.1543 8.58398C55.7402 8.58398 55.3496 8.58203 54.9824 8.57812C54.8262 8.57812 54.666 8.57812 54.502 8.57812C54.3418 8.57812 54.1895 8.57812 54.0449 8.57812C53.9004 8.57422 53.7676 8.57227 53.6465 8.57227C53.5254 8.57227 53.4277 8.57227 53.3535 8.57227V12H52.0234V4.04297ZM59.1602 4.04297H61.1582L63.5371 12H62.207L61.4805 9.56836H58.9082L58.2168 12H56.8516L59.1602 4.04297ZM61.2051 8.54883L60.1328 4.64648L59.166 8.54883H61.2051ZM65.6055 5.02734C65.3125 5.03125 65.0469 5.03516 64.8086 5.03906C64.5742 5.04297 64.373 5.04883 64.2051 5.05664C64.0098 5.06445 63.8359 5.07227 63.6836 5.08008C63.6758 5.0332 63.6699 4.98633 63.666 4.93945C63.6543 4.85742 63.6484 4.75586 63.6484 4.63477C63.6484 4.56445 63.6523 4.48047 63.6602 4.38281C63.6719 4.28125 63.6914 4.16797 63.7188 4.04297H68.9336C68.9375 4.08203 68.9414 4.12305 68.9453 4.16602C68.9492 4.20117 68.9531 4.24219 68.957 4.28906C68.9609 4.33203 68.9629 4.375 68.9629 4.41797C68.9629 4.49609 68.9551 4.59766 68.9395 4.72266C68.9277 4.84766 68.9043 4.96484 68.8691 5.07422C68.8379 5.07031 68.7559 5.06641 68.623 5.0625C68.4941 5.05469 68.3379 5.04883 68.1543 5.04492C67.9707 5.04102 67.7715 5.03711 67.5566 5.0332C67.3418 5.0293 67.1328 5.02734 66.9297 5.02734V12H65.6055V5.02734ZM69.8184 8.89453C69.8184 8.77344 69.8184 8.61133 69.8184 8.4082C69.8184 8.20117 69.8184 7.97266 69.8184 7.72266C69.8223 7.47266 69.8242 7.20898 69.8242 6.93164C69.8281 6.65039 69.8301 6.37305 69.8301 6.09961C69.834 5.45898 69.8379 4.77344 69.8418 4.04297H71.1426V9.08789C71.1426 9.38867 71.1719 9.66016 71.2305 9.90234C71.2891 10.1445 71.3828 10.3516 71.5117 10.5234C71.6445 10.6953 71.8145 10.8281 72.0215 10.9219C72.2285 11.0156 72.4824 11.0625 72.7832 11.0625C73.0801 11.0625 73.334 11.0156 73.5449 10.9219C73.7559 10.8281 73.9277 10.6953 74.0605 10.5234C74.1934 10.3516 74.2891 10.1445 74.3477 9.90234C74.4102 9.66016 74.4414 9.38867 74.4414 9.08789C74.4414 9.00195 74.4414 8.86328 74.4414 8.67188C74.4414 8.48047 74.4395 8.25977 74.4355 8.00977C74.4355 7.75586 74.4336 7.48242 74.4297 7.18945C74.4297 6.89258 74.4297 6.59766 74.4297 6.30469C74.4258 5.61719 74.4219 4.86328 74.418 4.04297H75.7129V8.89453C75.7129 9.42578 75.6621 9.89258 75.5605 10.2949C75.4629 10.6973 75.3008 11.0332 75.0742 11.3027C74.8477 11.5723 74.5469 11.7754 74.1719 11.9121C73.7969 12.0488 73.334 12.1172 72.7832 12.1172C72.2402 12.1172 71.7793 12.0488 71.4004 11.9121C71.0254 11.7715 70.7207 11.5664 70.4863 11.2969C70.252 11.0234 70.082 10.6855 69.9766 10.2832C69.8711 9.88086 69.8184 9.41797 69.8184 8.89453ZM77.3359 4.04297H80.125C80.5156 4.04297 80.8613 4.09766 81.1621 4.20703C81.4629 4.3125 81.7129 4.46484 81.9121 4.66406C82.1152 4.85938 82.2676 5.09766 82.3691 5.37891C82.4746 5.65625 82.5273 5.9668 82.5273 6.31055C82.5273 6.56055 82.4961 6.79883 82.4336 7.02539C82.3711 7.24805 82.2754 7.45508 82.1465 7.64648C82.0215 7.83398 81.8594 8.00195 81.6602 8.15039C81.4648 8.29883 81.2324 8.41992 80.9629 8.51367C81.1113 8.79883 81.2695 9.08789 81.4375 9.38086C81.6055 9.67383 81.7734 9.9668 81.9414 10.2598C82.1133 10.5527 82.2832 10.8457 82.4512 11.1387C82.6191 11.4316 82.7773 11.7188 82.9258 12H81.4961L79.7559 8.71289H79.6738C79.5605 8.71289 79.4414 8.70898 79.3164 8.70117C79.1953 8.68945 79.082 8.67773 78.9766 8.66602C78.8516 8.65039 78.7305 8.63281 78.6133 8.61328V12H77.3359V4.04297ZM78.6133 7.66992C78.6484 7.67383 78.7051 7.67969 78.7832 7.6875C78.8652 7.69141 78.9551 7.69531 79.0527 7.69922C79.1543 7.70312 79.2617 7.70703 79.375 7.71094C79.4922 7.71094 79.6035 7.71094 79.709 7.71094C80.2051 7.71094 80.5742 7.59961 80.8164 7.37695C81.0625 7.15039 81.1855 6.80273 81.1855 6.33398C81.1855 5.92383 81.0742 5.60938 80.8516 5.39062C80.6328 5.17188 80.3203 5.0625 79.9141 5.0625H78.6133V7.66992ZM86.8926 12.1523C86.3066 12.1523 85.8027 12.0586 85.3809 11.8711C84.9629 11.6797 84.6191 11.4062 84.3496 11.0508C84.084 10.6914 83.8887 10.2578 83.7637 9.75C83.6387 9.23828 83.5762 8.66211 83.5762 8.02148C83.5762 7.38086 83.6406 6.80469 83.7695 6.29297C83.9023 5.78125 84.1035 5.34766 84.373 4.99219C84.6465 4.63672 84.9922 4.36523 85.4102 4.17773C85.8281 3.98633 86.3223 3.89062 86.8926 3.89062C87.4902 3.89062 87.9961 3.98047 88.4102 4.16016C88.8242 4.33594 89.1602 4.5957 89.418 4.93945C89.6797 5.2832 89.8691 5.70508 89.9863 6.20508C90.1035 6.70117 90.1621 7.26953 90.1621 7.91016C90.1621 8.55469 90.0996 9.13867 89.9746 9.66211C89.8496 10.1816 89.6543 10.627 89.3887 10.998C89.123 11.3652 88.7832 11.6504 88.3691 11.8535C87.959 12.0527 87.4668 12.1523 86.8926 12.1523ZM86.8926 11.127C87.2637 11.127 87.5723 11.0488 87.8184 10.8926C88.0684 10.7363 88.2676 10.5176 88.416 10.2363C88.5684 9.95117 88.6758 9.61133 88.7383 9.2168C88.8047 8.82227 88.8379 8.38672 88.8379 7.91016C88.8379 7.39844 88.8047 6.95508 88.7383 6.58008C88.6758 6.20117 88.5684 5.88867 88.416 5.64258C88.2676 5.39258 88.0684 5.20703 87.8184 5.08594C87.5723 4.96484 87.2637 4.9043 86.8926 4.9043C86.5215 4.9043 86.207 4.97461 85.9492 5.11523C85.6953 5.25195 85.4902 5.45508 85.334 5.72461C85.1777 5.99023 85.0645 6.31641 84.9941 6.70312C84.9277 7.08984 84.8945 7.5293 84.8945 8.02148C84.8945 8.51367 84.9277 8.95312 84.9941 9.33984C85.0645 9.72656 85.1777 10.0527 85.334 10.3184C85.4902 10.5801 85.6953 10.7812 85.9492 10.9219C86.207 11.0586 86.5215 11.127 86.8926 11.127ZM92.7695 5.02734C92.4766 5.03125 92.2109 5.03516 91.9727 5.03906C91.7383 5.04297 91.5371 5.04883 91.3691 5.05664C91.1738 5.06445 91 5.07227 90.8477 5.08008C90.8398 5.0332 90.834 4.98633 90.8301 4.93945C90.8184 4.85742 90.8125 4.75586 90.8125 4.63477C90.8125 4.56445 90.8164 4.48047 90.8242 4.38281C90.8359 4.28125 90.8555 4.16797 90.8828 4.04297H96.0977C96.1016 4.08203 96.1055 4.12305 96.1094 4.16602C96.1133 4.20117 96.1172 4.24219 96.1211 4.28906C96.125 4.33203 96.127 4.375 96.127 4.41797C96.127 4.49609 96.1191 4.59766 96.1035 4.72266C96.0918 4.84766 96.0684 4.96484 96.0332 5.07422C96.002 5.07031 95.9199 5.06641 95.7871 5.0625C95.6582 5.05469 95.502 5.04883 95.3184 5.04492C95.1348 5.04102 94.9355 5.03711 94.7207 5.0332C94.5059 5.0293 94.2969 5.02734 94.0938 5.02734V12H92.7695V5.02734ZM97.2227 4.04297H98.5469V12H97.2227V4.04297Z" fill="#75DDDD"/>
</svg>
