<svg width="45" height="15" viewBox="0 0 45 15" fill="none" xmlns="http://www.w3.org/2000/svg">
<path d="M42 13.3077C42 13.69 41.7761 14 41.5 14C41.2239 14 41 13.69 41 13.3077C41 12.9253 41.2239 12.6154 41.5 12.6154C41.7761 12.6154 42 12.9253 42 13.3077Z" fill="#75DDDD"/>
<ellipse cx="30.5" cy="13.6923" rx="0.5" ry="0.692308" fill="#75DDDD"/>
<path d="M3.25 4.04297H5.24805L7.62695 12H6.29688L5.57031 9.56836H2.99805L2.30664 12H0.941406L3.25 4.04297ZM5.29492 8.54883L4.22266 4.64648L3.25586 8.54883H5.29492ZM8.5 4.04883C8.69922 4.04102 8.91992 4.03125 9.16211 4.01953C9.37305 4.01172 9.61914 4.00391 9.90039 3.99609C10.1855 3.98828 10.498 3.98438 10.8379 3.98438C11.4473 3.98438 11.9863 4.06641 12.4551 4.23047C12.9238 4.39062 13.3184 4.63477 13.6387 4.96289C13.9629 5.29102 14.207 5.70312 14.3711 6.19922C14.5391 6.69531 14.623 7.27734 14.623 7.94531C14.623 8.61328 14.5332 9.20117 14.3535 9.70898C14.1738 10.2129 13.916 10.6348 13.5801 10.9746C13.248 11.3145 12.8438 11.5703 12.3672 11.7422C11.8906 11.9141 11.3535 12 10.7559 12H8.5V4.04883ZM10.9551 10.9746C11.3184 10.9746 11.6426 10.8984 11.9277 10.7461C12.2129 10.5898 12.4551 10.377 12.6543 10.1074C12.8535 9.83398 13.0059 9.51562 13.1113 9.15234C13.2168 8.78516 13.2695 8.39062 13.2695 7.96875C13.2695 7.48047 13.2168 7.05273 13.1113 6.68555C13.0059 6.31445 12.8535 6.00391 12.6543 5.75391C12.4551 5.50391 12.2129 5.31641 11.9277 5.19141C11.6426 5.06641 11.3184 5.00391 10.9551 5.00391C10.7559 5.00391 10.584 5.00586 10.4395 5.00977C10.2949 5.01367 10.1777 5.01758 10.0879 5.02148C9.98242 5.0293 9.89453 5.03516 9.82422 5.03906V10.9746H10.9551ZM15.8594 4.04297H20.4238C20.4238 4.07031 20.4258 4.09961 20.4297 4.13086C20.4336 4.1582 20.4355 4.18945 20.4355 4.22461C20.4395 4.25586 20.4414 4.29102 20.4414 4.33008C20.4414 4.39648 20.4277 4.49805 20.4004 4.63477C20.377 4.76758 20.3223 4.92188 20.2363 5.09766C19.9121 5.08594 19.5762 5.07422 19.2285 5.0625C18.9316 5.05469 18.6035 5.04688 18.2441 5.03906C17.8848 5.02734 17.5332 5.02148 17.1895 5.02148V7.42383C17.3027 7.42383 17.4297 7.42383 17.5703 7.42383C17.7148 7.41992 17.8633 7.41602 18.0156 7.41211C18.1719 7.4082 18.3281 7.4043 18.4844 7.40039C18.6406 7.39648 18.793 7.39258 18.9414 7.38867C19.2852 7.37695 19.6387 7.36719 20.002 7.35938C20.002 7.39062 20.0039 7.42383 20.0078 7.45898C20.0117 7.49023 20.0137 7.52734 20.0137 7.57031C20.0176 7.60938 20.0195 7.65039 20.0195 7.69336C20.0195 7.71289 20.0156 7.75195 20.0078 7.81055C20.0039 7.86523 19.9941 7.92773 19.9785 7.99805C19.9668 8.06836 19.9512 8.13867 19.9316 8.20898C19.916 8.2793 19.8965 8.33789 19.873 8.38477C19.5098 8.38477 19.1602 8.38281 18.8242 8.37891C18.6797 8.37891 18.5312 8.37891 18.3789 8.37891C18.2266 8.37891 18.0781 8.37891 17.9336 8.37891C17.793 8.375 17.6582 8.37305 17.5293 8.37305C17.4004 8.37305 17.2871 8.37305 17.1895 8.37305V10.998C17.5332 10.998 17.8945 10.9922 18.2734 10.9805C18.6562 10.9688 19.0117 10.957 19.3398 10.9453C19.7227 10.9297 20.0996 10.9121 20.4707 10.8926C20.4707 10.9277 20.4727 10.9648 20.4766 11.0039C20.4805 11.0352 20.4824 11.0742 20.4824 11.1211C20.4863 11.1641 20.4883 11.207 20.4883 11.25C20.4883 11.332 20.4824 11.4395 20.4707 11.5723C20.459 11.7051 20.4336 11.8477 20.3945 12H15.8594V4.04297ZM21.8359 4.04297H23.166V10.8984C23.3301 10.8984 23.5 10.8965 23.6758 10.8926C23.8555 10.8887 24.0332 10.8848 24.209 10.8809C24.3887 10.877 24.5625 10.873 24.7305 10.8691C24.9023 10.8613 25.0645 10.8535 25.2168 10.8457C25.5762 10.8301 25.9277 10.8145 26.2715 10.7988C26.2715 10.8652 26.2617 10.9648 26.2422 11.0977C26.2266 11.2305 26.207 11.3652 26.1836 11.502C26.1602 11.6348 26.1367 11.752 26.1133 11.8535C26.0938 11.9512 26.0781 12 26.0664 12H21.8359V4.04297ZM27.6602 4.04297H32.2246C32.2246 4.07031 32.2266 4.09961 32.2305 4.13086C32.2344 4.1582 32.2363 4.18945 32.2363 4.22461C32.2402 4.25586 32.2422 4.29102 32.2422 4.33008C32.2422 4.39648 32.2285 4.49805 32.2012 4.63477C32.1777 4.76758 32.123 4.92188 32.0371 5.09766C31.7129 5.08594 31.377 5.07422 31.0293 5.0625C30.7324 5.05469 30.4043 5.04688 30.0449 5.03906C29.6855 5.02734 29.334 5.02148 28.9902 5.02148V7.42383C29.1035 7.42383 29.2305 7.42383 29.3711 7.42383C29.5156 7.41992 29.6641 7.41602 29.8164 7.41211C29.9727 7.4082 30.1289 7.4043 30.2852 7.40039C30.4414 7.39648 30.5938 7.39258 30.7422 7.38867C31.0859 7.37695 31.4395 7.36719 31.8027 7.35938C31.8027 7.39062 31.8047 7.42383 31.8086 7.45898C31.8125 7.49023 31.8145 7.52734 31.8145 7.57031C31.8184 7.60938 31.8203 7.65039 31.8203 7.69336C31.8203 7.71289 31.8164 7.75195 31.8086 7.81055C31.8047 7.86523 31.7949 7.92773 31.7793 7.99805C31.7676 8.06836 31.752 8.13867 31.7324 8.20898C31.7168 8.2793 31.6973 8.33789 31.6738 8.38477C31.3105 8.38477 30.9609 8.38281 30.625 8.37891C30.4805 8.37891 30.332 8.37891 30.1797 8.37891C30.0273 8.37891 29.8789 8.37891 29.7344 8.37891C29.5938 8.375 29.459 8.37305 29.3301 8.37305C29.2012 8.37305 29.0879 8.37305 28.9902 8.37305V10.998C29.334 10.998 29.6953 10.9922 30.0742 10.9805C30.457 10.9688 30.8125 10.957 31.1406 10.9453C31.5234 10.9297 31.9004 10.9121 32.2715 10.8926C32.2715 10.9277 32.2734 10.9648 32.2773 11.0039C32.2812 11.0352 32.2832 11.0742 32.2832 11.1211C32.2871 11.1641 32.2891 11.207 32.2891 11.25C32.2891 11.332 32.2832 11.4395 32.2715 11.5723C32.2598 11.7051 32.2344 11.8477 32.1953 12H27.6602V4.04297ZM34.9844 9.01172L32.5938 4.04297H34.0234L35.2949 7.01953L35.6348 8.05078L35.9746 7.02539L37.2637 4.04297H38.6934L36.3145 9.01172V12H34.9844V9.01172ZM39.5078 4.04297H44.0723C44.0723 4.07031 44.0742 4.09961 44.0781 4.13086C44.082 4.1582 44.084 4.18945 44.084 4.22461C44.0879 4.25586 44.0898 4.29102 44.0898 4.33008C44.0898 4.39648 44.0762 4.49805 44.0488 4.63477C44.0254 4.76758 43.9707 4.92188 43.8848 5.09766C43.5605 5.08594 43.2246 5.07422 42.877 5.0625C42.5801 5.05469 42.252 5.04688 41.8926 5.03906C41.5332 5.02734 41.1816 5.02148 40.8379 5.02148V7.42383C40.9512 7.42383 41.0781 7.42383 41.2188 7.42383C41.3633 7.41992 41.5117 7.41602 41.6641 7.41211C41.8203 7.4082 41.9766 7.4043 42.1328 7.40039C42.2891 7.39648 42.4414 7.39258 42.5898 7.38867C42.9336 7.37695 43.2871 7.36719 43.6504 7.35938C43.6504 7.39062 43.6523 7.42383 43.6562 7.45898C43.6602 7.49023 43.6621 7.52734 43.6621 7.57031C43.666 7.60938 43.668 7.65039 43.668 7.69336C43.668 7.71289 43.6641 7.75195 43.6562 7.81055C43.6523 7.86523 43.6426 7.92773 43.627 7.99805C43.6152 8.06836 43.5996 8.13867 43.5801 8.20898C43.5645 8.2793 43.5449 8.33789 43.5215 8.38477C43.1582 8.38477 42.8086 8.38281 42.4727 8.37891C42.3281 8.37891 42.1797 8.37891 42.0273 8.37891C41.875 8.37891 41.7266 8.37891 41.582 8.37891C41.4414 8.375 41.3066 8.37305 41.1777 8.37305C41.0488 8.37305 40.9355 8.37305 40.8379 8.37305V10.998C41.1816 10.998 41.543 10.9922 41.9219 10.9805C42.3047 10.9688 42.6602 10.957 42.9883 10.9453C43.3711 10.9297 43.748 10.9121 44.1191 10.8926C44.1191 10.9277 44.1211 10.9648 44.125 11.0039C44.1289 11.0352 44.1309 11.0742 44.1309 11.1211C44.1348 11.1641 44.1367 11.207 44.1367 11.25C44.1367 11.332 44.1309 11.4395 44.1191 11.5723C44.1074 11.7051 44.082 11.8477 44.043 12H39.5078V4.04297Z" fill="#75DDDD"/>
</svg>
